<svg width="25" height="25" viewBox="0 0 25 25" fill="none" xmlns="http://www.w3.org/2000/svg">
<g clip-path="url(#clip0_1315_8103)">
<g clip-path="url(#clip1_1315_8103)">
<g clip-path="url(#clip2_1315_8103)">
<g clip-path="url(#clip3_1315_8103)">
<path d="M15.088 23.172L15.088 23.1777L8.80835 23.137C4.54548 23.1094 1.06452 19.6013 1.0501 15.3145L1.0267 8.35965C1.01228 4.07314 4.47513 0.609608 8.73266 0.637159L15.7623 0.682648C20.0252 0.710233 23.5061 4.21837 23.5206 8.5052L23.5439 15.4543C23.5584 19.7462 20.0958 23.2044 15.838 23.1768L15.088 23.172Z" stroke="#004932" stroke-width="1.5"/>
<path d="M9.14418 18.5193C7.87329 18.5111 6.54425 18.0863 5.67927 17.3111L6.69663 16.1605C7.60714 16.9759 9.49159 17.2275 10.5677 16.6872C11.5193 16.2031 12.2481 15.3014 12.6414 14.1411C12.4938 14.1401 12.352 14.1392 12.2102 14.1383C10.7235 14.0831 9.31413 13.3842 8.52762 12.3245C8.14574 11.8033 7.8882 11.1403 7.83503 10.5129C7.76419 9.69158 7.99999 8.95204 8.52566 8.36828C9.05701 7.78456 9.81053 7.47021 10.6446 7.48131C11.6148 7.49899 12.6035 7.95573 13.23 8.67805C14.0103 9.57809 14.4572 10.875 14.4901 12.2206C15.5271 11.8339 16.4156 11.167 16.9234 10.3323C17.2845 9.73609 17.4352 8.99599 17.3307 8.30555C17.2263 7.60941 16.8666 6.94011 16.3487 6.46932L17.3718 5.31872C18.1685 6.04215 18.6994 7.02038 18.8562 8.0874C19.0129 9.14872 18.7953 10.2361 18.2367 11.1503C17.6499 12.1156 16.7335 12.9077 15.5836 13.4418C15.1757 13.633 14.745 13.7842 14.3086 13.901C13.8781 15.8022 12.7882 17.3058 11.2646 18.0713C10.6472 18.3808 9.90447 18.5299 9.13853 18.5249L9.14418 18.5193ZM10.6214 9.02601C10.3434 9.02421 9.96349 9.09016 9.66955 9.41319C9.36432 9.75324 9.13443 10.5612 9.76135 11.4033C10.2686 12.0963 11.2233 12.5471 12.2503 12.588C12.483 12.5952 12.7156 12.591 12.9424 12.5697C12.9898 11.4698 12.6684 10.3732 12.0704 9.68525C11.7286 9.2954 11.1661 9.03523 10.6327 9.02608C10.6327 9.02608 10.6214 9.02601 10.6157 9.02597L10.6214 9.02601Z" fill="#004932"/>
</g>
</g>
</g>
</g>
<defs>
<clipPath id="clip0_1315_8103">
<rect width="24" height="24" fill="white" transform="translate(0.167969 0.168213) rotate(-0.401452)"/>
</clipPath>
<clipPath id="clip1_1315_8103">
<rect width="24" height="24" fill="white" transform="matrix(0.999979 0.00647089 0.00336419 0.999994 0 0)"/>
</clipPath>
<clipPath id="clip2_1315_8103">
<rect width="24" height="24" fill="white" transform="translate(0.416016 0.000488281) rotate(-0.401452)"/>
</clipPath>
<clipPath id="clip3_1315_8103">
<rect width="24" height="24" fill="white" transform="matrix(0.999979 0.00647089 0.00336419 0.999994 0.248047 -0.167725)"/>
</clipPath>
</defs>
</svg>
