<svg width="25" height="25" viewBox="0 0 25 25" fill="none" xmlns="http://www.w3.org/2000/svg">
<g clip-path="url(#clip0_834_1576)">
<g clip-path="url(#clip1_834_1576)">
<path d="M15.4245 24.1002L8.39486 24.0548C3.71411 24.0245 -0.100097 20.1747 -0.1159 15.4773L-0.139297 8.52252C-0.1551 3.82516 3.63904 0.0246353 8.31412 0.0548878L15.3438 0.100377C20.0245 0.130666 23.8387 3.98042 23.8545 8.67778L23.8779 15.6269C23.8937 20.33 20.0996 24.1248 15.4245 24.0945L15.4245 24.1002Z" fill="#004932"/>
<path d="M8.72817 18.687C7.45727 18.6788 6.12824 18.254 5.26326 17.4789L6.28062 16.3282C7.19112 17.1436 9.07558 17.3952 10.1517 16.8549C11.1033 16.3708 11.8321 15.4692 12.2253 14.3088C12.0778 14.3078 11.936 14.3069 11.7941 14.306C10.3075 14.2508 8.89812 13.5519 8.11161 12.4922C7.72973 11.971 7.47219 11.3081 7.41902 10.6806C7.34817 9.85931 7.58397 9.11976 8.10964 8.53601C8.64099 7.95229 9.39451 7.63793 10.2286 7.64903C11.1988 7.66671 12.1875 8.12345 12.814 8.84578C13.5943 9.74581 14.0412 11.0427 14.0741 12.3883C15.1111 12.0016 15.9996 11.3347 16.5074 10.5C16.8685 9.90381 17.0192 9.16372 16.9147 8.47327C16.8103 7.77713 16.4506 7.10784 15.9327 6.63704L16.9557 5.48645C17.7525 6.20987 18.2834 7.1881 18.4402 8.25512C18.5969 9.31644 18.3793 10.4038 17.8207 11.318C17.2339 12.2833 16.3175 13.0755 15.1675 13.6096C14.7597 13.8008 14.329 13.9519 13.8925 14.0688C13.4621 15.97 12.3722 17.4736 10.8486 18.239C10.2312 18.5485 9.48845 18.6976 8.72251 18.6927L8.72817 18.687ZM10.2054 9.19373C9.92737 9.19193 9.54747 9.25788 9.25353 9.58091C8.94831 9.92097 8.71841 10.729 9.34533 11.571C9.85261 12.264 10.8073 12.7149 11.8343 12.7557C12.067 12.7629 12.2996 12.7587 12.5264 12.7374C12.5738 11.6375 12.2524 10.5409 11.6543 9.85297C11.3126 9.46312 10.7501 9.20296 10.2167 9.19381C10.2167 9.19381 10.2054 9.19373 10.1997 9.1937L10.2054 9.19373Z" fill="#D7FF3C"/>
</g>
</g>
<defs>
<clipPath id="clip0_834_1576">
<rect width="24" height="24" fill="white" transform="translate(0 0.168213) rotate(-0.401452)"/>
</clipPath>
<clipPath id="clip1_834_1576">
<rect width="24" height="24" fill="white" transform="matrix(0.999979 0.00647089 0.00336419 0.999994 -0.167969 0)"/>
</clipPath>
</defs>
</svg>
