<svg width="20" height="20" viewBox="0 0 20 20" fill="none" xmlns="http://www.w3.org/2000/svg">
<g clip-path="url(#clip0_773_2180)">
<g clip-path="url(#clip1_773_2180)">
<mask id="mask0_773_2180" style="mask-type:luminance" maskUnits="userSpaceOnUse" x="0" y="0" width="20" height="20">
<path d="M20 0H0V20H20V0Z" fill="white"/>
</mask>
<g mask="url(#mask0_773_2180)">
<path d="M19.8125 8.34896C19.6876 8.04614 19.5001 7.77217 19.2694 7.53665L12.9488 1.21605C12.1653 0.437395 11.1031 0 10.0024 0C8.90171 0 7.83946 0.437395 7.056 1.21605L0.730594 7.54146C0.49988 7.77217 0.312425 8.04614 0.187455 8.35376C0.062485 8.65177 0 8.97861 0 9.30546V17.4285C0 17.7746 0.0528719 18.1255 0.187455 18.4475C0.596011 19.4088 1.51887 19.9856 2.4994 19.9856H6.33021C6.97429 19.9856 7.4982 19.4617 7.4982 18.8176V15.1021C7.4982 14.7513 7.55107 14.4052 7.69046 14.0832C8.09902 13.117 9.02187 12.5451 10.0024 12.5451C10.9829 12.5451 11.901 13.1218 12.3143 14.0832C12.4489 14.4052 12.5066 14.7561 12.5066 15.1021V18.3225H12.5018V18.8176C12.5018 19.4617 13.0257 19.9856 13.6698 19.9856H17.4477C17.7938 19.9856 18.1447 19.9327 18.4667 19.7981C19.4328 19.3896 20.0048 18.4667 20.0048 17.4862V9.30546C20.0048 8.97861 19.9423 8.65177 19.8174 8.34896H19.8125Z" fill="#004932"/>
</g>
</g>
</g>
<defs>
<clipPath id="clip0_773_2180">
<rect width="20" height="20" fill="white"/>
</clipPath>
<clipPath id="clip1_773_2180">
<rect width="20" height="20" fill="white"/>
</clipPath>
</defs>
</svg>
